<svg width="600" height="400">
    <!--DEBUG LINES TO BE REMOVED-->
    <path d="
          M 300 0 l 0 300 
          M 0 150 l 600 0 
          M 0.5 0.5 l 599 0 l 0 299 l -599 0 z
          M 336 130 l -80 0
          M 145 65 l 8 0" fill="none" stroke="green" opacity="0" />
    <!--Fill-In-->
    <path d="M 401 135 l 50 0 l 0 15 l 50 0 l 0 -90 l 15 0 l 0 105 l -65 0 l 0 90 l -15 0 l 0 -30 l -35 0 l 0 -60 l -65 0 l 0 -105 l 15 0 l 0 90 l 50 0 z
          
          M 149 135 l 50 0 l 0 15 l 50 0 l 0 -90 l 15 0 l 0 90 l 30 0 l 0 15 l -95 0 l 0 60 l -35 0 l 0 30 l -15 0 l 0 -90 l -95 0 l 0 -15 l 30 0 l 0 -90 l 15 0 l 0 90 l 50 0 z 
          
          M 247.5 60 l 20 0 l 0 -30 l -20 0 l 0 10 l 10 0 l 0 10 l -10 0 z
          
          M 333.5 60 l 20 0 l 0 -30 l -20 0 l 0 10 l 10 0 l 0 10 l -10 0 z
          
          M 498.5 60 l 20 0 l 0 -30 l -20 0 l 0 10 l 10 0 l 0 10 l -10 0 z
          
          M 295 147 l 20 0 l 0 10 l -10 0 l 0 10 l -10 0 z
          
          M 54 147 l -10 0 l 0 10 l -10 0 l 0 10 l 20 0 z
          
          M 134 150 l 0 15
          
          M 214 150 l 0 15
          
          M 385 150 l 0 15
          
          M 465 150 l 0 15
          
          M 149 80 l 50 0 l 0 -25 l -15 0 l 0 -20 l 25 0 l 0 -15 l -70 0 l 0 15 l 25 0 l 0 20 l -15 0 z
          
          M 54 75 l 30 0 l 0 30 l -30 0 z" fill="#101010" stroke="none" />
    <!--Elevator-->
    <path d="M 416 113 l 20 0 l 0 20 l -20 0 z" fill="#0e1110" stroke="#3e311e" stroke-width="1" />
    <path d="M 416 113 m 7 6 l 6 0 l 0 1 l -5 0 l 0 2 l 4 0 l 0 1 l -4 0 l 0 3 l 5 0 l 0 1 l -6 0 z" fill="#f5efae"
        stroke="#f5efae" stroke-width="0.1" />
    <!--Terminal-->
    <path d="M 81.5 39 l 20 0 l 0 20 l -20 0 z" fill="#0e1110" stroke="#3f7066" stroke-width="1" />
    <path
        d="M 81.5 39 m 10 3 l 3 1.5 l 0 9 l 1 1 l 0 3 l -1.5 0 l 0 -2.5 l -1.75 0 l 0 2.5 l -1.5 0 l 0 -2.5 l -1.75 0 l 0 2.5 l -1.5 0 l 0 -3 l 1 -1 l 0 -9 z"
        fill="#c2e8e9" stroke="#c2e8e9" stroke-width=".1" />
    <!--Fountain of Life-->
    <path d="M 59 80 l 20 0 l 0 20 l -20 0 z" fill="#0e1110" stroke="#3f7066" stroke-width="1" />
    <ellipse cx="69" cy="90" rx="8" ry="6" fill="#c2e8e9" />
    <ellipse cx="69" cy="90" rx="7" ry="5" fill="#0e1110" />
    <ellipse cx="69" cy="90" rx="6" ry="4.6" fill="#c2e8e9" />
    <ellipse cx="69" cy="89" rx="4.6" ry="3.6" fill="#0e1110" />
    <!--Down Arrow-->
    <path d="M 154 65 l 8 0 l -4 8 l 4 0 l 0 2 l -8 0 l 0 -2 l 4 0 z" fill="#f5efae" stroke="black"
        stroke-width="0.5" />
    <!--Stairs-->
    <path d="
          M 37 157 l 0 10 m 2 -10 l 0 10 m 2 -10 l 0 10 m 2 -10 l 0 10
          
          M 306 147 l 0 10 m 2 -10 l 0 10 m 2 -10 l 0 10 m 2 -10 l 0 10
          
          M 257 40 l 10 0 m -10 2 l 10 0 m -10 2 l 10 0 m -10 2 l 10 0 m -10 2 l 10 0
          
          M 344 40 l 10 0 m -10 2 l 10 0 m -10 2 l 10 0 m -10 2 l 10 0 m -10 2 l 10 0
          
          M 509 40 l 10 0 m -10 2 l 10 0 m -10 2 l 10 0 m -10 2 l 10 0 m -10 2 l 10 0" fill="none" stroke="#8e989d"
        stroke-width="1" />
    <!--1 Sided Doors-->
    <path d="
          M 420.5 136.6 l 11 0
          M 151 253.4 l 11 0
          M 86 61.6 l 11 0" fill="none" stroke="white" stroke-width="2.5" />
    <!--2 Sided Doors-->
    <path d="
          M 251 60 l 11 0
          M 338 60 l 11 0
          M 503 60 l 11 0
          M 84 84 l 0 11
          M 54 152 l 0 11
          M 134 152 l 0 11
          M 214 152 l 0 11
          M 294 152 l 0 11
          M 385 152 l 0 11
          M 465 152 l 0 11" fill="none" stroke="white" stroke-width="5" />

    <!--Perimeter Lines-->
    <path d=" 
          M 401 135 l 50 0 l 0 15 l 50 0 l 0 -90 l 15 0 l 0 105 l -65 0 l 0 90 l -15 0 l 0 -30 l -35 0 l 0 -60 l -65 0 l 0 -105 l 15 0 l 0 90 l 50 0 z
          
          M 149 135 l 50 0 l 0 15 l 50 0 l 0 -90 l 15 0 l 0 90 l 30 0 l 0 15 l -95 0 l 0 60 l -35 0 l 0 30 l -15 0 l 0 -90 l -95 0 l 0 -15 l 30 0 l 0 -90 l 15 0 l 0 90 l 50 0 z 
          
          M 247 60 l 20 0 l 0 -30 l -20 0 l 0 10 l 10 0 l 0 10 l -10 0 z
          
          M 333.8 60 l 20 0 l 0 -30 l -20 0 l 0 10 l 10 0 l 0 10 l -10 0 z
          
          M 499 60 l 20 0 l 0 -30 l -20 0 l 0 10 l 10 0 l 0 10 l -10 0 z
          
          M 294 147 l 20 0 l 0 10 l -10 0 l 0 10 l -10 0 z
          
          M 54 147 l -10 0 l 0 10 l -10 0 l 0 10 l 20 0 z
          
          M 134 150 l 0 15
          
          M 214 150 l 0 15
          
          M 385 150 l 0 15
          
          M 465 150 l 0 15
          
          M 149 80 l 50 0 l 0 -25 l -15 0 l 0 -20 l 25 0 l 0 -15 l -70 0 l 0 15 l 25 0 l 0 20 l -15 0 z
          
          M 54 75 l 30 0 l 0 30 l -30 0 z" fill="none" stroke="#8e989d" stroke-width="1" />
    <text x="147" y="264" fill="#f5efae" font-size="8">EXIT</text>
</svg>